<svg xmlns="http://www.w3.org/2000/svg" width="256" height="256" viewBox="0 0 100 100"><rect width="100" height="100" rx="20" fill="#000000"></rect><path fill="#ffffff" d="M14.00 32.08L14.00 32.08Q14.00 31.10 15.01 30.09Q16.02 29.08 17.75 28.25Q19.47 27.43 21.80 26.94Q24.12 26.45 26.75 26.45L26.75 26.45Q34.02 26.45 38.11 29.98Q42.20 33.50 42.20 39.50L42.20 39.50Q42.20 41.53 41.67 43.51Q41.15 45.50 39.95 47.56Q38.75 49.63 36.80 51.88Q34.85 54.13 32.07 56.68L32.07 56.68L19.85 68L42.12 68Q42.42 68.38 42.65 68.98Q42.87 69.58 42.87 70.40L42.87 70.40Q42.87 72.95 40.55 72.95L40.55 72.95L14.07 72.95Q12.57 71.90 12.57 69.95L12.57 69.95Q12.57 67.78 14.37 66.05L14.37 66.05L27.87 53.08Q30.12 50.90 31.70 49.10Q33.27 47.30 34.21 45.73Q35.15 44.15 35.56 42.65Q35.97 41.15 35.97 39.58L35.97 39.58Q35.97 35.98 33.57 33.76Q31.17 31.55 26.30 31.55L26.30 31.55Q22.92 31.55 20.37 32.68Q17.82 33.80 16.10 35.08L16.10 35.08Q15.27 34.70 14.64 33.95Q14.00 33.20 14.00 32.08ZM50.22 56.23L72.05 27.28Q72.72 27.13 73.59 27.01Q74.45 26.90 75.13 26.90L75.13 26.90Q76.70 26.90 77.97 27.65Q79.25 28.40 79.25 30.58L79.25 30.58L79.25 56.83L86.75 56.83Q86.97 57.20 87.20 57.84Q87.42 58.48 87.42 59.30L87.42 59.30Q87.42 61.85 85.10 61.85L85.10 61.85L79.25 61.85L79.25 73.10Q78.88 73.25 78.16 73.40Q77.45 73.55 76.63 73.55L76.63 73.55Q73.40 73.55 73.40 70.92L73.40 70.92L73.40 61.85L51.72 61.85Q50.97 61.48 50.41 60.54Q49.85 59.60 49.85 58.33L49.85 58.33Q49.85 57.65 49.96 57.16Q50.07 56.68 50.22 56.23L50.22 56.23ZM73.47 56.83L73.63 33.20L73.47 33.20L56.82 56.83L73.47 56.83Z"></path></svg>